<svg width="191" height="34" viewBox="0 0 191 34" fill="none" xmlns="http://www.w3.org/2000/svg">
<path d="M70.0518 0C76.4142 6.40845e-05 82.1877 3.56283 83.8271 11.96H79.9629C78.508 5.90802 74.4164 3.7608 70.0518 3.76074C63.5153 3.76074 59.1083 8.6462 59.0977 17.0039C59.1084 25.3614 63.5119 30.2461 70.0518 30.2461V30.2422C74.4164 30.2421 78.508 28.095 79.9629 22.043H83.8271C82.1877 30.4366 76.4142 33.9999 70.0518 34C61.4325 34 55.1227 27.3573 55.0977 17.0293V16.9707C55.1191 6.64633 61.4325 0 70.0518 0ZM10.9863 0.000976562C12.6882 -0.0278147 14.153 1.14149 12.6924 3.10645C10.9904 5.23707 6.82738 11.5861 7.04687 14.9512C7.17281 16.8764 7.41355 18.6902 8.97851 21.0293C11.6447 25.0097 15.484 27.9829 19.2656 28.9619C21.5181 29.545 21.3849 31.467 19.2764 32.7158C17.1677 33.9681 13.0482 34.6587 9.58691 32.9492C5.77647 31.067 3.75042 27.6591 4.75781 24.5928C6.12149 20.4396 5.83371 19.0432 2.54882 15.6279C-1.24011 11.6906 -0.243286 8.31064 1.92285 4.83398C4.29764 1.03006 9.28424 0.0334246 10.9863 0.000976562ZM34.458 0.000976562C36.1567 0.0334838 41.1436 1.03005 43.5146 4.83398C45.6807 8.30702 46.6776 11.6906 42.8887 15.6279C39.6035 19.0434 39.315 20.4395 40.6787 24.5928C41.6862 27.659 39.6608 31.0669 35.8506 32.9492C32.3928 34.6587 28.2727 33.9682 26.1641 32.7158C24.0555 31.467 23.9223 29.545 26.1748 28.9619H26.1777C29.9595 27.983 33.7995 25.0098 36.4658 21.0293C38.0307 18.6902 38.2715 16.8764 38.3975 14.9512C38.6169 11.5861 34.4539 5.23707 32.7519 3.10645C31.2912 1.14145 32.7561 -0.0278151 34.458 0.000976562ZM119.849 8.02637C126.956 8.02651 130.785 13.7438 130.785 20.6748V21.9854H112.694C113.063 27.4215 115.878 29.9043 120.033 29.9043C123.401 29.9042 125.526 28.1241 126.356 25.4043H130.186C129.032 29.9506 125.615 33.3223 119.94 33.3223C113.433 33.3222 108.865 28.4955 108.865 20.6748C108.865 12.8539 113.248 8.02637 119.849 8.02637ZM141.906 8.02637C148.276 8.02639 151.505 10.883 151.598 16.0381H147.907C147.723 12.2916 145.554 11.2578 141.906 11.2578C138.723 11.2578 136.924 12.5694 136.924 14.8174C136.924 17.065 138.678 17.9547 141.726 18.5635L143.848 18.9854C149.709 20.1562 152.062 22.17 152.062 26.1074C152.062 30.6967 148.464 33.3223 142.602 33.3223C136.74 33.3222 132.864 30.7471 132.495 25.0771H136.229C136.644 28.7296 138.397 30.0917 142.598 30.0918C146.799 30.0918 148.322 28.7332 148.322 26.3447C148.322 24.1905 147.03 23.2073 142.875 22.4111L140.66 21.9893C135.49 21.0057 133.229 18.6172 133.229 14.8672C133.23 10.7425 136.459 8.02637 141.906 8.02637ZM96.3857 8.02246C102.986 8.02257 105.338 10.973 105.338 15.0508V28.5459C105.338 29.2952 105.753 29.7168 106.63 29.7168H107.968L107.972 29.7129V32.7568C107.372 32.8505 106.633 32.8975 105.941 32.8975C103.312 32.8974 102.112 31.7263 101.928 29.4316C100.267 32.0074 97.5884 33.3193 94.1748 33.3193C89.0047 33.3193 85.7755 30.7903 85.7754 26.2441C85.7754 22.4508 88.0357 19.4496 94.5898 18.7471L98.0039 18.3721C100.402 18.091 101.74 17.2017 101.74 15.0479C101.74 12.519 100.449 11.254 96.3857 11.2539C92.3228 11.2539 90.6155 12.4248 90.3848 16.0342H86.6943C86.9712 11.3512 89.4166 8.02246 96.3857 8.02246ZM164.574 8.02246C171.174 8.02246 173.527 10.9729 173.527 15.0508V28.5459C173.527 29.2952 173.943 29.7168 174.819 29.7168H176.157L176.16 29.7129V32.7568C175.561 32.8505 174.823 32.8974 174.131 32.8975C171.501 32.8975 170.302 31.7264 170.117 29.4316C168.456 32.0074 165.781 33.3193 162.363 33.3193C157.193 33.3193 153.964 30.7902 153.964 26.2441C153.964 22.4508 156.224 19.4496 162.778 18.7471L166.192 18.3721C168.591 18.0911 169.929 17.2018 169.929 15.0479C169.929 12.5189 168.637 11.2539 164.574 11.2539C160.511 11.2539 158.804 12.4248 158.573 16.0342H154.883C155.16 11.3512 157.605 8.02248 164.574 8.02246ZM189.755 8.20605C190.124 8.20605 190.493 8.20613 191 8.25293V11.8633H190.078C185.323 11.8633 182.278 14.2986 182.278 18.9854V32.7607H178.588V8.58496H182.094V12.8467C183.432 10.3178 185.876 8.20605 189.755 8.20605ZM101.744 20.3467C101.006 20.9087 99.9904 21.2365 98.6064 21.377L95.1465 21.7988C90.8105 22.314 89.6074 23.8128 89.6074 26.1543C89.6076 28.4957 91.0843 30.1348 94.3594 30.1348C97.8003 30.1347 101.504 28.1128 101.732 23.6406L101.744 23.2031V20.3467ZM169.929 20.3467C169.191 20.9086 168.176 21.2365 166.792 21.377L163.332 21.7988C158.992 22.314 157.793 23.8128 157.793 26.1543C157.793 28.4956 159.269 30.1347 162.548 30.1348C166.1 30.1348 169.932 27.9804 169.933 23.2002L169.929 23.2031V20.3467ZM21.709 6.7666C22.04 5.84888 23.3391 5.84893 23.6738 6.7666L24.3359 8.5918C25.1024 10.7006 26.7617 12.363 28.8701 13.126L30.6943 13.7881C31.6116 14.1193 31.6116 15.4191 30.6943 15.7539L28.8701 16.416C26.7616 17.1826 25.0988 18.8413 24.3359 20.9502L23.6738 22.7754C23.3427 23.6929 22.0437 23.6929 21.709 22.7754L21.0469 20.9502C20.2804 18.8414 18.6219 17.179 16.5137 16.416L14.6894 15.7539C13.7719 15.4228 13.7719 14.1228 14.6894 13.7881L16.5137 13.126C18.6219 12.3594 20.284 10.7005 21.0469 8.5918L21.709 6.7666ZM119.849 11.4414C116.112 11.4414 113.387 13.8299 112.787 18.6104H126.817C126.448 14.6297 124.096 11.4415 119.849 11.4414Z" fill="#FFFFFC"/>
</svg>
