<svg width="191" height="34" viewBox="0 0 191 34" fill="none" xmlns="http://www.w3.org/2000/svg">
<path d="M70.0512 0C76.4137 0 82.1871 3.56283 83.8266 11.96H79.9623C78.5074 5.90804 74.4158 3.76074 70.0512 3.76074C63.515 3.76094 59.1077 8.64637 59.0971 17.0039C59.1078 25.3613 63.5115 30.2459 70.0512 30.2461V30.2422C74.4159 30.2422 78.5074 28.0951 79.9623 22.043H83.8266C82.1871 30.4367 76.4137 34 70.0512 34C61.4321 33.9998 55.1231 27.3571 55.0981 17.0293V16.9707C55.1195 6.64649 61.4321 0.000203942 70.0512 0ZM10.9867 0.000976562C12.6886 -0.0276945 14.1526 1.14148 12.6918 3.10645C10.9898 5.23715 6.82682 11.5861 7.04631 14.9512C7.17225 16.8765 7.41384 18.6901 8.97892 21.0293C11.6452 25.0098 15.4843 27.983 19.266 28.9619C21.5185 29.545 21.3853 31.467 19.2768 32.7158C17.1682 33.9683 13.0478 34.6587 9.58635 32.9492C5.77615 31.0669 3.75078 27.659 4.75822 24.5928C6.12194 20.4395 5.8334 19.0434 2.54826 15.6279C-1.24064 11.6906 -0.243806 8.31061 1.92228 4.83398C4.29711 1.02982 9.28478 0.0333678 10.9867 0.000976562ZM34.4574 0.000976562C36.1558 0.0333673 41.1428 1.02996 43.5141 4.83398C45.6802 8.30704 46.677 11.6906 42.8881 15.6279C39.6032 19.0431 39.3154 20.4396 40.6791 24.5928C41.6865 27.6591 39.6605 31.067 35.85 32.9492C32.3921 34.6587 28.2721 33.9683 26.1635 32.7158C24.0552 31.467 23.9221 29.545 26.1742 28.9619H26.1781C29.9599 27.983 33.799 25.0098 36.4653 21.0293C38.0303 18.6901 38.2719 16.8765 38.3979 14.9512C38.6174 11.5861 34.4544 5.23715 32.7524 3.10645C31.2916 1.14148 32.7556 -0.0276933 34.4574 0.000976562ZM119.848 8.02637C126.956 8.02637 130.785 13.7437 130.785 20.6748V21.9854H112.695C113.064 27.4213 115.877 29.9042 120.033 29.9043C123.4 29.9043 125.526 28.1242 126.357 25.4043H130.185C129.032 29.9505 125.615 33.3222 119.941 33.3223C113.433 33.3223 108.866 28.4956 108.866 20.6748C108.866 12.854 113.248 8.02652 119.848 8.02637ZM141.906 8.02637C148.275 8.02637 151.505 10.883 151.597 16.0381H147.907C147.722 12.2916 145.554 11.2578 141.906 11.2578C138.723 11.2579 136.924 12.5696 136.924 14.8174C136.924 17.0649 138.677 17.9547 141.725 18.5635L143.847 18.9854C149.709 20.1562 152.062 22.1699 152.062 26.1074C152.062 30.6966 148.464 33.3222 142.602 33.3223C136.74 33.3223 132.865 30.7471 132.496 25.0771H136.229C136.644 28.7297 138.397 30.0918 142.598 30.0918C146.8 30.0918 148.322 28.7332 148.322 26.3447C148.322 24.1905 147.03 23.2073 142.874 22.4111L140.661 21.9893C135.49 21.0058 133.23 18.6173 133.23 14.8672C133.23 10.7426 136.459 8.02653 141.906 8.02637ZM96.3852 8.02246C102.985 8.02246 105.338 10.9729 105.338 15.0508V28.5459C105.338 29.2952 105.754 29.7168 106.63 29.7168H107.968L107.971 29.7129V32.7568C107.372 32.8505 106.634 32.8975 105.942 32.8975C103.312 32.8975 102.113 31.7264 101.928 29.4316C100.267 32.0074 97.5879 33.3193 94.1742 33.3193C89.0043 33.3192 85.7749 30.7902 85.7748 26.2441C85.7748 22.4508 88.0361 19.4496 94.5903 18.7471L98.0033 18.3721C100.402 18.0911 101.74 17.2018 101.74 15.0479C101.74 12.5189 100.448 11.2539 96.3852 11.2539C92.3224 11.2539 90.6159 12.4249 90.3852 16.0342H86.6947C86.9716 11.3512 89.4162 8.02252 96.3852 8.02246ZM164.575 8.02246C171.175 8.02256 173.528 10.973 173.528 15.0508V28.5459C173.528 29.2951 173.942 29.7167 174.819 29.7168H176.157L176.161 29.7129V32.7568C175.561 32.8505 174.822 32.8975 174.13 32.8975C171.501 32.8974 170.302 31.7263 170.118 29.4316C168.457 32.0074 165.781 33.3193 162.364 33.3193C157.194 33.3193 153.964 30.7903 153.964 26.2441C153.964 22.4508 156.225 19.4496 162.779 18.7471L166.193 18.3721C168.591 18.091 169.929 17.2017 169.929 15.0479C169.929 12.519 168.637 11.254 164.575 11.2539C160.512 11.2539 158.804 12.4248 158.574 16.0342H154.883C155.16 11.3512 157.605 8.02246 164.575 8.02246ZM189.754 8.20605C190.123 8.20605 190.493 8.2061 191 8.25293V11.8633H190.078C185.323 11.8633 182.278 14.2986 182.278 18.9854V32.7607H178.587V8.58496H182.093V12.8467C183.431 10.3179 185.876 8.20622 189.754 8.20605ZM101.744 20.3467C101.006 20.9086 99.9907 21.2365 98.6069 21.377L95.1469 21.7988C90.8106 22.314 89.6078 23.8127 89.6078 26.1543C89.608 28.4956 91.0839 30.1347 94.3588 30.1348C97.7998 30.1348 101.505 28.1129 101.733 23.6406L101.744 23.2031V20.3467ZM169.929 20.3467C169.191 20.9086 168.176 21.2364 166.792 21.377L163.332 21.7988C158.993 22.314 157.793 23.8127 157.793 26.1543C157.794 28.4957 159.27 30.1348 162.548 30.1348C166.1 30.1347 169.933 27.9803 169.933 23.2002L169.929 23.2031V20.3467ZM21.7094 6.7666C22.0405 5.84899 23.3396 5.8489 23.6742 6.7666L24.3363 8.5918C25.1028 10.7005 26.7612 12.363 28.8695 13.126L30.6938 13.7881C31.6113 14.1192 31.6113 15.4192 30.6938 15.7539L28.8695 16.416C26.7612 17.1826 25.0992 18.8414 24.3363 20.9502L23.6742 22.7754C23.3432 23.693 22.0442 23.6928 21.7094 22.7754L21.0473 20.9502C20.2808 18.8412 18.6216 17.179 16.5131 16.416L14.6889 15.7539C13.7714 15.4228 13.7714 14.1228 14.6889 13.7881L16.5131 13.126C18.6216 12.3594 20.2844 10.7007 21.0473 8.5918L21.7094 6.7666ZM119.848 11.4414C116.112 11.4415 113.386 13.83 112.787 18.6104H126.818C126.449 14.6296 124.096 11.4414 119.848 11.4414Z" fill="#262524"/>
</svg>
